<?xml version="1.0" standalone="no"?>
<!DOCTYPE svg PUBLIC "-//W3C//DTD SVG 20010904//EN"
 "http://www.w3.org/TR/2001/REC-SVG-20010904/DTD/svg10.dtd">
<svg version="1.0" xmlns="http://www.w3.org/2000/svg"
 width="512.000000pt" height="512.000000pt" viewBox="0 0 512.000000 512.000000"
 preserveAspectRatio="xMidYMid meet">

<g transform="translate(0.000000,512.000000) scale(0.100000,-0.100000)"
fill="#000000" stroke="none">
<path d="M2085 2674 c-143 -344 -261 -630 -263 -635 -2 -5 143 -9 367 -9 l371
0 2 -635 3 -636 44 103 c24 57 188 432 364 833 175 402 321 736 324 743 4 9
-73 12 -366 12 -204 0 -371 2 -371 5 0 3 68 186 151 407 83 222 154 411 156
421 5 16 -12 17 -258 17 l-264 0 -260 -626z"/>
</g>
</svg>
